# xmcd
#
# Track frame offsets:
#	150
#	18279
#	35212
#	49940
#	72267
#	85135
#	102986
#	122862
#	141306
#	158687
#
# Disc length: 2276 seconds
#
# Revision: 0
# Processed by: cddbd v1.5.2PL0 Copyright (c) Steve Scherf et al.
# Submitted via: EasyCDDAExtractor 10.5.1.1
#
DISCID=8908e20a
DTITLE=Mike Culpepper - Just because I Asked
DYEAR=2003
DGENRE=Gospel
TTITLE0=Just Because I Asked
TTITLE1=I've Got Him
TTITLE2=I Have A Bridge
TTITLE3=You're Still Mine
TTITLE4=Amazing Grace Was Just A Song
TTITLE5=I'm Still Standing Out
TTITLE6=Man In The Middle
TTITLE7=Ten Thousand Angels Cried
TTITLE8=An Altar Alters My Life
TTITLE9=Saved By The Bell
EXTD=
EXTT0=
EXTT1=
EXTT2=
EXTT3=
EXTT4=
EXTT5=
EXTT6=
EXTT7=
EXTT8=
EXTT9=
PLAYORDER=
